<svg width="25" height="16" viewBox="0 0 25 16" fill="none" xmlns="http://www.w3.org/2000/svg">
<rect x="0.829269" y="0.499512" width="2.00959" height="1.66633" fill="black" stroke="black"/>
<rect x="0.329269" y="2.66626" width="3.00959" height="2.66633" fill="black"/>
<rect x="0.329269" y="5.33282" width="3.00959" height="2.66633" fill="black"/>
<rect x="0.329269" y="7.99951" width="3.00959" height="2.66633" fill="black"/>
<rect x="0.329269" y="10.6666" width="3.00959" height="2.66633" fill="black"/>
<rect x="3.33881" y="10.6666" width="3.00959" height="2.66633" fill="black"/>
<rect x="6.3484" y="10.6666" width="3.00959" height="2.66633" fill="black"/>
<rect x="9.35799" y="10.6666" width="3.00959" height="2.66633" fill="black"/>
<rect x="0.329269" y="13.3331" width="3.00959" height="2.66633" fill="#F2CC8F"/>
<rect x="3.33887" y="13.3331" width="3.00959" height="2.66633" fill="#F2CC8F"/>
<rect x="6.3484" y="13.3331" width="3.00959" height="2.66633" fill="#F2CC8F"/>
<rect x="9.35805" y="13.3331" width="3.00959" height="2.66633" fill="#F2CC8F"/>
<rect x="12.9695" y="-0.000488281" width="3.00959" height="2.66633" fill="black"/>
<rect x="15.979" y="-0.000488281" width="3.00959" height="2.66633" fill="black"/>
<rect x="15.979" y="10.6666" width="3.00959" height="2.66633" fill="black"/>
<rect x="18.9887" y="10.6666" width="3.00959" height="2.66633" fill="black"/>
<rect x="21.9983" y="10.6666" width="3.00959" height="2.66633" fill="black"/>
<rect x="18.9887" y="-0.000488281" width="3.00959" height="2.66633" fill="black"/>
<rect x="21.9983" y="-0.000488281" width="3.00959" height="2.66633" fill="black"/>
<rect x="12.9695" y="2.66626" width="3.00959" height="2.66633" fill="black"/>
<rect x="12.9695" y="5.33282" width="3.00959" height="2.66633" fill="black"/>
<rect x="12.9695" y="7.99951" width="3.00959" height="2.66633" fill="black"/>
<rect x="12.9695" y="10.6666" width="3.00959" height="2.66633" fill="black"/>
<rect x="12.9695" y="13.3331" width="3.00959" height="2.66633" fill="#81B29A"/>
<rect x="15.979" y="13.3331" width="3.00959" height="2.66633" fill="#81B29A"/>
<rect x="18.9887" y="13.3331" width="3.00959" height="2.66633" fill="#81B29A"/>
<rect x="21.9983" y="13.3331" width="3.00959" height="2.66633" fill="#81B29A"/>
</svg>
