<svg width="100" height="100" viewBox="0 0 100 100" fill="none" xmlns="http://www.w3.org/2000/svg">
<g clip-path="url(#clip0_6_230)">
<rect width="100" height="100" rx="5" fill="#81B29A"/>
<path d="M46.3359 79H20.4766C20.2682 79 20.1641 78.8698 20.1641 78.6094L20.2422 23.7266C20.2422 23.4661 20.3724 23.3359 20.6328 23.3359H29.5391C29.7995 23.3359 29.9297 23.4661 29.9297 23.7266L29.8516 69.1562H46.3359C46.5964 69.1562 46.7266 69.2865 46.7266 69.5469V78.6094C46.7266 78.8698 46.5964 79 46.3359 79ZM66.6875 79.7812C63.7969 79.7812 61.1536 79.0521 58.7578 77.5938C56.388 76.1354 54.5 74.1823 53.0938 71.7344C51.7135 69.2604 51.0234 66.513 51.0234 63.4922L51.1016 38.5312C51.1016 35.5625 51.7786 32.8802 53.1328 30.4844C54.487 28.0625 56.349 26.1224 58.7188 24.6641C61.1146 23.1797 63.7708 22.4375 66.6875 22.4375C69.6562 22.4375 72.2995 23.1536 74.6172 24.5859C76.9609 26.0182 78.8229 27.9583 80.2031 30.4062C81.6094 32.8281 82.3125 35.5365 82.3125 38.5312V42.2031C82.3125 42.4115 82.2083 42.5156 82 42.5156H73.0156C72.8073 42.5156 72.7031 42.4115 72.7031 42.2031V38.5312C72.7031 36.7604 72.1302 35.237 70.9844 33.9609C69.8385 32.6849 68.4062 32.0469 66.6875 32.0469C64.7865 32.0469 63.3281 32.6979 62.3125 34C61.2969 35.3021 60.7891 36.8125 60.7891 38.5312V63.4922C60.7891 65.4453 61.362 67.0469 62.5078 68.2969C63.6536 69.5208 65.0469 70.1328 66.6875 70.1328C68.4062 70.1328 69.8385 69.4557 70.9844 68.1016C72.1302 66.7214 72.7031 65.1849 72.7031 63.4922V59.7812C72.7031 59.5729 72.8073 59.4688 73.0156 59.4688H82.0781C82.2865 59.4688 82.3906 59.5729 82.3906 59.7812V63.4922C82.3906 66.487 81.6875 69.2214 80.2812 71.6953C78.849 74.1432 76.9609 76.1094 74.6172 77.5938C72.2734 79.0521 69.6302 79.7812 66.6875 79.7812Z" fill="white"/>
</g>
<defs>
<clipPath id="clip0_6_230">
<rect width="100" height="100" rx="5" fill="white"/>
</clipPath>
</defs>
</svg>
