<svg width="235" height="85" viewBox="0 0 235 85" fill="none" xmlns="http://www.w3.org/2000/svg">
<rect x="0.5" y="0.5" width="9" height="9" fill="black" stroke="black"/>
<rect y="10" width="10" height="10" fill="black"/>
<rect y="20" width="10" height="10" fill="black"/>
<rect y="30" width="10" height="10" fill="black"/>
<rect y="40" width="10" height="10" fill="black"/>
<rect x="10" y="40" width="10" height="10" fill="black"/>
<rect x="20" y="40" width="10" height="10" fill="black"/>
<rect x="30" y="40" width="10" height="10" fill="black"/>
<rect y="50" width="10" height="10" fill="#F2CC8F"/>
<rect x="10" y="50" width="10" height="10" fill="#F2CC8F"/>
<rect x="20" y="50" width="10" height="10" fill="#F2CC8F"/>
<rect x="30" y="50" width="10" height="10" fill="#F2CC8F"/>
<rect x="42" width="10" height="10" fill="black"/>
<rect x="52" width="10" height="10" fill="black"/>
<rect x="52" y="40" width="10" height="10" fill="black"/>
<rect x="62" y="40" width="10" height="10" fill="black"/>
<rect x="72" y="40" width="10" height="10" fill="black"/>
<rect x="62" width="10" height="10" fill="black"/>
<rect x="72" width="10" height="10" fill="black"/>
<rect x="42" y="10" width="10" height="10" fill="black"/>
<rect x="42" y="20" width="10" height="10" fill="black"/>
<rect x="42" y="30" width="10" height="10" fill="black"/>
<rect x="42" y="40" width="10" height="10" fill="black"/>
<rect x="42" y="50" width="10" height="10" fill="#81B29A"/>
<rect x="52" y="50" width="10" height="10" fill="#81B29A"/>
<rect x="62" y="50" width="10" height="10" fill="#81B29A"/>
<rect x="72" y="50" width="10" height="10" fill="#81B29A"/>
<line x1="148" y1="77.5" x2="235" y2="77.5" stroke="black"/>
<path d="M0.468 73.6H6.732V74.464H3.156L4.092 75.04V82H3.12V75.16L2.664 74.464H0.468V73.6ZM8.14331 73.012H9.10331V76.204L10.0633 75.628H12.4633L13.4593 77.044V82H12.4873V77.164L12.0313 76.492H9.49931L9.10331 76.864V82H8.14331V73.012ZM16.2866 75.628H19.6466L20.6426 77.056L18.6626 79.096H16.2866V80.44L16.7546 81.136H19.2986L19.9706 80.476L20.4986 81.136L19.6586 82H16.2986L15.3266 80.56V76.624L16.2866 75.628ZM16.2866 76.876V78.232H18.3026L19.5146 76.96L19.2026 76.492H16.6706L16.2866 76.876ZM29.7173 73.6H30.6773V80.416L31.1693 81.124H34.0733V80.26H35.0453V82H30.7133L29.7173 80.512V73.6ZM37.8966 75.628H41.2926L42.2526 77.068V81.004L41.2926 82H37.9086L36.9366 80.56V76.624L37.8966 75.628ZM37.8846 80.44L38.3646 81.136H40.9086L41.2686 80.752V77.176L40.8126 76.492H38.2566L37.8846 76.888V80.44ZM45.0919 75.628H48.4879L49.4479 77.068V81.004L48.4879 82H45.1039L44.1319 80.56V76.624L45.0919 75.628ZM45.0799 80.44L45.5599 81.136H48.1039L48.4639 80.752V77.176L48.0079 76.492H45.4519L45.0799 76.888V80.44ZM52.3472 75.628H55.6592L56.2832 76.552L55.6952 77.176L55.2152 76.468H52.7672L52.3952 76.792V77.704L52.8512 78.352H55.6832L56.4992 79.576V81.1L55.6832 82H51.9152L51.4352 81.256L52.0232 80.644L52.3472 81.136H55.2872L55.5392 80.848V79.72L55.1912 79.228H52.3472L51.4352 77.848V76.516L52.3472 75.628ZM59.4585 75.628H62.8185L63.8145 77.056L61.8345 79.096H59.4585V80.44L59.9265 81.136H62.4705L63.1425 80.476L63.6705 81.136L62.8305 82H59.4705L58.4985 80.56V76.624L59.4585 75.628ZM59.4585 76.876V78.232H61.4745L62.6865 76.96L62.3745 76.492H59.8425L59.4585 76.876ZM74.0651 73.6H77.4371L78.2291 74.8L77.6171 75.448L76.9811 74.464H74.4251L74.0531 74.86V80.44L74.5211 81.136H77.0531L77.7731 80.416L78.2531 81.136L77.4371 82H74.0531L73.0931 80.56V74.596L74.0651 73.6ZM81.0684 75.628H84.4644L85.4244 77.068V81.004L84.4644 82H81.0804L80.1084 80.56V76.624L81.0684 75.628ZM81.0564 80.44L81.5364 81.136H84.0804L84.4404 80.752V77.176L83.9844 76.492H81.4284L81.0564 76.888V80.44ZM87.2798 73.024H89.0798L90.0518 73.6V80.452L90.5078 81.136H92.5958L92.5838 82H90.0518L89.0798 80.572V73.888H87.2798V73.024ZM94.4751 73.024H96.2751L97.2471 73.6V80.452L97.7031 81.136H99.7911L99.7791 82H97.2471L96.2751 80.572V73.888H94.4751V73.024ZM102.63 75.628H105.99L106.986 77.056L105.006 79.096H102.63V80.44L103.098 81.136H105.642L106.314 80.476L106.842 81.136L106.002 82H102.642L101.67 80.56V76.624L102.63 75.628ZM102.63 76.876V78.232H104.646L105.858 76.96L105.546 76.492H103.014L102.63 76.876ZM109.85 75.628H113.222L114.074 76.9L113.462 77.536L112.754 76.492H110.222L109.85 76.876V80.44L110.318 81.136H112.85L113.558 80.404L114.05 81.136L113.222 82H109.862L108.89 80.56V76.624L109.85 75.628ZM117.273 73.024H118.233V75.616H120.177V76.492H118.233V80.44L118.701 81.124H119.913L120.633 80.404L121.125 81.124L120.309 82H118.233L117.273 80.584V76.492H116.325V75.616H117.273V73.024ZM123.748 75.4H125.44L126.4 76.84V81.136H128.572V82H123.268V81.136H125.44V76.96L124.984 76.276H123.748V75.4ZM125.32 73.828H126.52V72.628H125.32V73.828ZM134.808 75.616H135.78V79.288L133.164 82H132.324L130.464 79.24V75.616H131.424V79.108L132.792 81.148L134.808 79.048V75.616ZM138.607 75.628H141.967L142.963 77.056L140.983 79.096H138.607V80.44L139.075 81.136H141.619L142.291 80.476L142.819 81.136L141.979 82H138.619L137.647 80.56V76.624L138.607 75.628ZM138.607 76.876V78.232H140.623L141.835 76.96L141.523 76.492H138.991L138.607 76.876Z" fill="black"/>
</svg>
